<svg id="Layer_1" data-name="Layer 1" xmlns="http://www.w3.org/2000/svg" viewBox="0 0 600 143"><defs><style>.cls-1,.cls-2{fill:#b93f04;}.cls-2{font-size:56.69px;font-family:SnapITC-Regular, Snap ITC;}.cls-3,.cls-5{font-family:Algerian, Algerian;}.cls-4,.cls-5{fill:#db9423;}.cls-4{letter-spacing:0em;}</style></defs><title>Artboard 1</title><path class="cls-1" d="M152.8,70.6a8.2,8.2,0,0,0-4-4.9l-69-39.8h-.1L36.5,2.5A17.3,17.3,0,0,0,11.7,22.7,17.2,17.2,0,0,0,34.4,33.9L64.1,49.9,53.8,68.9a8,8,0,0,0-.8,4.6,2.8,2.8,0,0,0-.2,1.1c.2,6,4.1,9.8,8.3,13.8C68,94.9,76.5,103.1,73.8,125a23.4,23.4,0,0,1-1.2,3.4c-1.1,2.7-1.8,4.4-1.8,5.9a8.3,8.3,0,1,0,16.7,0,23.9,23.9,0,0,0-.8-5.7c-.9-3.3-1.5-8.2.6-12.7.8-1,6.7-3.2,9.5-1.8.5.2,1.8.9,1,4.7a25.3,25.3,0,0,1-1.1,3c-1.2,2.9-1.9,4.9-1.9,6.5a8.3,8.3,0,1,0,16.7,0c0-.3,0-.7.1-1.2a16.4,16.4,0,0,0-.1-5.1c-.8-6.5-.8-7.4,2.8-8.8l6.8,4a8.3,8.3,0,0,0,11.3-3.4L152.2,77A8.3,8.3,0,0,0,152.8,70.6ZM33,20.3A5.4,5.4,0,1,1,30.8,13h0A5.4,5.4,0,0,1,33,20.3ZM148,74.7l-19.9,36.8a3.6,3.6,0,0,1-4.8,1.5l-4-2.3.2-.3,1.1-1.2.5-.6a7.2,7.2,0,0,0,.9-2.1c1.1-4.6-2.3-9.5-5.3-12.8-4.5-4.9-9-5.1-13.3-5.3a23.1,23.1,0,0,1-9.1-1.7,24.8,24.8,0,0,1-7.7-5.1,29.2,29.2,0,0,0-8.9-5.9L73,73.6l-1.8-.9-.7-.3-.9-.4-.8-.3-.8-.3-.8-.2-.8-.2-.9-.2H58.3l11-20.4h0L79.6,31.2l67,38.6a3.6,3.6,0,0,1,1.5,4.9Z"/><path class="cls-1" d="M137.8,73a6.5,6.5,0,1,0,2.6,8.8A6.5,6.5,0,0,0,137.8,73Z"/><text class="cls-2" transform="translate(148 102)">Z<tspan class="cls-3" x="44.5" y="0">ombie</tspan><tspan class="cls-4" x="210.6" y="0">B</tspan><tspan class="cls-5" x="254.6" y="0">unker</tspan></text></svg>